<svg width="64" height="64" viewBox="0 0 64 64" xmlns="http://www.w3.org/2000/svg">
  <defs>
    <linearGradient x1="69.934%" y1="27.685%" x2="33.613%" y2="88.981%" id="a">
      <stop stop-color="#FF8C37" offset="0%"/>
      <stop stop-color="#10BAE0" offset="100%"/>
    </linearGradient>
  </defs>
  <g fill="none" fill-rule="evenodd">
    <path fill="#202127" d="M0 0h64v64H0z"/>
    <path stroke="url(#a)" stroke-width="1.75" stroke-linejoin="round" d="M48.72 15.273c-.621-1.07-2.4-3.24-4.918-4.351-1.648-.727-3.602-1.01-5.749-.287-2.797.942-4.828 3.292-5.621 6.3-.727 2.759-.408 6.076 1.353 9.302.82 1.501 1.637 2.899 2.601 4.475l3.288 4.881c-1.703-1.034-3.769-2-5.918-2.308a14.821 14.821 0 00-1.445-.077c-2.43 0-3.86.651-5.238 1.289-1.065.493-2.091.983-3.695 1.006-2.8.039-8.551-3.344-11.734-5.17-.92-.529-1.639-.94-2.037-1.133-.336-.163-.937-.411-1.71-.724.3 1.1.513 1.761.513 1.761s3.491 10.849 8.582 15.62c3.325 3.119 8.006 5.57 12.027 6.84 4.014 1.27 9.903 1.618 16.968.02 1.958-.443 3.437-1.174 4.522-1.974 1.585-1.17 2.345-2.505 2.568-3.415.423-1.728-.966-4.795-1.621-5.912L43.4 27.65c-.641-1.04-2.282-3.686-3.012-5.792-.198-.57-.333-1.093-.27-1.813.748-.523 1.507-.514 2.19-.27 1.347.478 2.443 1.752 2.882 2.315.57.726 2.23 2.754 3.654 3.958.516.435 1.01.766 1.425.936.572.235 1.145.782 2.13-1.576-.056-.341-.221-.833-.606-1.548-.18-.335-.38-.693-.58-1.052-.557-.998-1.146-2.006-1.254-2.508-.033-.154-.059-.393-.093-.688-.134-1.157-.373-3.007-1.146-4.338z"/>
  </g>
</svg>
