<svg width="520" height="520" viewBox="0 0 520 520" xmlns="http://www.w3.org/2000/svg">
  <path d="M190.048 295.46c29.912-.425 37.366-18.643 72.48-18.643 3.765 0 7.442.242 11.056.595.503.055.962.13 1.51.186.814.062 1.63.154 2.449.26l1.041.144c34.968 5.15 72.726 41.654 72.726 41.654l-49.78-73.909-1.54-2.51a792.089 792.089 0 01-19.345-33.419c-27.389-50.172-9.26-103.285 30.772-116.779 40.04-13.485 70.796 21.505 78.38 34.57 7.584 13.065 8.008 32.881 9.276 38.788 1.264 5.898 9.684 19.816 15.58 30.776 5.896 10.964 4.687 13.961 2.532 15.602-8.587 6.54-37.391-28.561-44.493-37.601l-.595-.762c-5.912-7.591-28.446-32.465-50.148-17.287-14.725 10.298 22.336 67.03 26.548 74.197L412.04 340.05l.516.877c4.212 7.179 14.982 29.334 11.895 41.947-2.726 11.135-17.615 30.764-52.355 38.623-55.858 12.637-102.45 10.042-134.21 0-31.761-10.042-68.764-29.371-95.043-54.007C102.48 329.645 75 243.547 75 243.547c14.748 7.167 85.124 52.329 115.048 51.912z"/>
</svg>
